Coordinates
version=1
nRows=8
nColumns=40
inDegrees=yes

Units are S.I. units (second, meters, Newtons, ...)
Angles are in degrees.

endheader
time	pelvis_tilt	pelvis_list	pelvis_rotation	pelvis_tx	pelvis_ty	pelvis_tz	hip_flexion_r	hip_adduction_r	hip_rotation_r	knee_angle_r	knee_angle_r_beta	ankle_angle_r	subtalar_angle_r	mtp_angle_r	hip_flexion_l	hip_adduction_l	hip_rotation_l	knee_angle_l	knee_angle_l_beta	ankle_angle_l	subtalar_angle_l	mtp_angle_l	lumbar_extension	lumbar_bending	lumbar_rotation	arm_flex_r	arm_add_r	arm_rot_r	elbow_flex_r	pro_sup_r	wrist_flex_r	wrist_dev_r	arm_flex_l	arm_add_l	arm_rot_l	elbow_flex_l	pro_sup_l	wrist_flex_l	wrist_dev_l
     42.32000000	    -10.17375259	     -6.95436183	      0.83505120	      0.96210683	      0.92080032	      0.49128638	     20.56612830	      3.61766889	    -18.21405871	     14.92811959	     14.92811959	      6.39897144	      1.81411151	     -4.16184968	     31.66001545	    -11.83974185	      4.84709540	     71.81133989	     71.81133989	      4.56875091	    -14.71001000	      3.19752914	    -10.56756934	      3.96474803	      4.63696434	      5.12042221	    -14.45088234	     -2.11788180	     49.69760635	     45.69855016	      0.00000000	      0.00000000	      2.85271540	     -9.71113673	     -6.23584766	     71.73387618	     46.75114858	      0.00000000	      0.00000000
     42.33157143	    -10.30336641	     -7.06109381	      1.14893547	      0.96056142	      0.92108779	      0.49196501	     19.89701446	      3.81670980	    -18.46406202	     14.32035022	     14.32035022	      6.66791562	      2.08550898	     -4.20073708	     34.05395817	    -11.53713396	      5.64254974	     72.97419649	     72.97419649	      4.61321989	    -15.36791068	      3.14689409	    -10.65925237	      3.88793259	      3.86376688	      8.11701117	    -14.29936155	     -2.24649078	     51.58340946	     45.65034511	      0.00000000	      0.00000000	      1.55568043	     -9.68241539	     -6.05490651	     68.28240780	     46.68988853	      0.00000000	      0.00000000
     42.34314286	    -10.35171490	     -7.10072386	      1.34831502	      0.95907989	      0.92143137	      0.49262876	     19.26592977	      3.93201108	    -18.64181231	     13.95592027	     13.95592027	      6.95398522	      2.37839161	     -4.36242493	     36.25731360	    -11.26456061	      6.17133087	     74.00920711	     74.00920711	      5.02789139	    -15.74385556	      4.03535844	    -10.81501184	      3.84059601	      4.48200170	      9.68719698	    -15.12607765	     -1.95975785	     55.46227580	     45.50006226	      0.00000000	      0.00000000	      2.68455786	     -8.64901738	     -6.25072212	     60.40302911	     46.70866533	      0.00000000	      0.00000000
     42.35471429	    -10.39462773	     -7.20824711	      1.57009032	      0.95768631	      0.92159366	      0.49329980	     18.62794399	      4.13690527	    -18.77510594	     13.57793553	     13.57793553	      7.30539480	      2.53568122	     -4.40888559	     38.35892561	    -11.03826707	      6.70304310	     74.77486656	     74.77486656	      5.13553828	    -16.36890277	      4.27038473	    -10.93044862	      3.79376552	      3.81849491	     12.67304692	    -14.97660448	     -2.06720819	     57.58696505	     45.44446403	      0.00000000	      0.00000000	      1.78058661	     -8.59268644	     -6.06524410	     56.57377157	     46.65366902	      0.00000000	      0.00000000
     42.36628571	    -10.45618883	     -7.29708145	      1.76736080	      0.95623388	      0.92179956	      0.49380511	     18.04482435	      4.30286493	    -18.92621680	     13.24130190	     13.24130190	      7.59097917	      2.74887962	     -4.39074693	     40.38478848	    -10.80983369	      7.13051966	     75.25671725	     75.25671725	      5.55600863	    -16.81435043	      5.50156130	    -11.11510450	      3.81527626	      4.17364295	     14.70997663	    -15.60802301	     -1.68515376	     60.37314285	     45.34423046	      0.00000000	      0.00000000	      2.79226776	     -7.85705057	     -6.27772267	     49.20764301	     46.62741339	      0.00000000	      0.00000000
     42.37785714	    -10.51908735	     -7.36338351	      1.91273970	      0.95488948	      0.92190292	      0.49427838	     17.46558350	      4.47073459	    -18.92087238	     12.90445690	     12.90445690	      7.93573477	      2.84046729	     -4.26890594	     42.25510128	    -10.61116452	      7.40997011	     75.37863218	     75.37863218	      6.02820989	    -17.31238018	      6.86498883	    -11.25931879	      3.76193513	      4.24150732	     16.86017033	    -15.85653106	     -1.97674001	     63.52727197	     45.26308307	      0.00000000	      0.00000000	      2.82160967	     -7.50883738	     -6.23532355	     44.29080827	     46.59464364	      0.00000000	      0.00000000
     42.38942857	    -10.56294694	     -7.46688619	      2.05351211	      0.95364612	      0.92194880	      0.49462893	     16.87281810	      4.67901875	    -18.91618111	     12.58691343	     12.58691343	      8.23040894	      2.84688695	     -4.21843147	     43.93802005	    -10.50834581	      7.59694325	     75.05612385	     75.05612385	      6.20321348	    -17.86817749	      7.42250523	    -11.45079880	      3.75624670	      3.61565297	     19.66213045	    -15.50881297	     -2.23867143	     65.86818569	     45.20787963	      0.00000000	      0.00000000	      1.63675585	     -7.55535727	     -6.03370566	     41.98181774	     46.54376636	      0.00000000	      0.00000000
     42.40100000	    -10.60488548	     -7.56392806	      2.14513494	      0.95248328	      0.92193375	      0.49487675	     16.30442840	      4.87899447	    -18.83436386	     12.32084541	     12.32084541	      8.57728916	      2.81148301	     -4.16364388	     45.43535182	    -10.45270677	      7.67608257	     74.32530866	     74.32530866	      6.58813914	    -18.25657983	      8.24119202	    -11.61400377	      3.73981087	      3.18141764	     22.35640916	    -15.24130118	     -2.24475983	     68.41151095	     45.13665969	      0.00000000	      0.00000000	      0.69294332	     -7.52363657	     -5.79664428	     39.37911891	     46.48887867	      0.00000000	      0.00000000
